<?xml version="1.0" encoding="UTF-8"?>
<svg width="107px" height="80px" viewBox="0 0 107 80" version="1.1" xmlns="http://www.w3.org/2000/svg" xmlns:xlink="http://www.w3.org/1999/xlink">
    <!-- Generator: Sketch 49 (51002) - http://www.bohemiancoding.com/sketch -->
    <title>SC_logo</title>
    <desc>Created with Sketch.</desc>
    <defs></defs>
    <g id="Booking---Mobile---User-flow-(Jeannie-&amp;-Greg)" stroke="none" stroke-width="1" fill="none" fill-rule="evenodd">
        <g id="5" transform="translate(-245.000000, -28.000000)" fill="#2C2B2B">
            <g id="SC_logo" transform="translate(245.000000, 28.000000)">
                <path d="M9.9450019,43.6235723 C10.9578166,43.5740126 11.8740518,43.4836981 12.8619591,43.2630692 C14.8222703,42.8253333 16.9462584,41.6306164 17.9392489,39.8618113 C19.1185363,37.7619371 18.8094817,35.215522 17.9590732,33.060805 C17.4118736,31.6738868 16.6494033,30.3687296 15.8676171,29.1000503 C15.528572,28.5501132 15.1745316,28.0094843 14.8337074,27.460805 C14.1810328,26.408478 13.430762,25.4197987 12.7183606,24.4072201 C12.0151088,23.4077233 11.4158071,22.3387925 10.6965435,21.3503648 C8.94667411,18.9478491 7.69215629,16.0892327 7.61489264,13.0965283 C7.59176437,12.2026918 7.699781,11.3068428 7.9043772,10.4356478 C8.09829881,9.60973585 8.38397102,8.76847799 8.75427743,8.00244025 C9.88349596,5.66508176 11.7850969,3.76394969 14.3708879,3.08394969 C16.9531207,2.40445283 19.8909188,2.39791195 22.379876,3.43539623 C23.0521207,3.71589937 23.7274152,4.0847044 24.310705,4.51967296 C25.0429306,5.06583648 25.9078261,6.17854088 26.0801444,7.09074214 C26.1980732,7.71640252 26.9277572,8.2892327 27.5573036,8.32067925 C27.8010399,8.33300629 28.0747667,8.33753459 28.3144366,8.2892327 C28.6222204,8.22810063 28.8329164,7.93979874 28.9704152,7.67791195 C29.4860993,6.69828931 28.4648974,5.03740881 27.879066,4.30483019 C25.9960185,1.94885535 23.1095601,0.673383648 20.1595625,0.283194969 C18.4872109,0.0615597484 16.7391207,-0.069509434 15.066515,0.211748428 C11.6788594,0.782314465 9.25318717,2.40445283 7.19426318,5.08445283 C6.44094252,6.06508176 5.71989976,7.92420126 5.36179287,9.09778616 C3.88310879,13.9438239 5.8660399,18.6925031 8.42489026,22.761434 C8.97768124,23.6416855 9.53631781,24.5181635 10.0944461,25.3946415 C11.4407145,27.5091069 13.0251278,29.4404277 14.2816789,31.6263396 C15.0751563,33.0052075 16.1080494,34.7878491 15.9530138,36.450239 C15.7862869,38.2328805 14.4153653,39.841434 12.8022323,40.377283 C11.2750043,40.8842013 9.57113729,40.9586667 7.97732019,40.8150189 C6.24041283,40.6585409 4.81459335,39.9830692 3.18773587,39.4353962 C2.44000665,39.1835723 1.63229644,38.6250818 0.781887886,38.9682264 C0.216897387,39.1964025 0.0753320665,39.6283522 0.148275059,40.2054591 C0.301531591,41.415522 1.96015867,42.0821887 3.32421805,42.5709937 C5.39483325,43.3126289 7.76611591,43.730239 9.9450019,43.6235723" id="Fill-1"></path>
                <path d="M84.344186,19.1671195 C84.2435399,19.1849811 84.1495019,19.2126541 84.057243,19.2513962 C83.5738368,19.4546667 83.3395043,19.8649811 83.0911931,20.2994465 C83.0525613,20.3666164 83.0144378,20.4327799 82.9755518,20.499195 C82.9407323,20.5580629 82.8667727,20.6866164 82.7661266,20.8602013 C82.3757418,21.5349182 81.60768,22.8624654 81.1687513,23.5510189 C79.284433,25.7749182 76.7192287,28.280327 73.7595732,29.8830943 C72.6067181,30.5072453 69.9451884,31.6808302 68.7552264,29.7142893 C68.315281,28.9869937 68.4814995,28.6614591 68.4766705,28.6463648 C68.6106112,28.4448553 68.8126658,28.1890063 68.9778677,27.9804528 C69.2030506,27.695673 69.6849318,27.191522 70.0941242,26.5442264 C70.4405399,25.9970566 70.7366325,25.4913962 71.1648867,24.6549182 C71.4256515,24.1454843 71.5461219,23.8023396 71.7763879,23.2793208 C72.133224,22.468 72.4951432,20.8383145 71.8239152,20.0934088 C70.2013784,18.2926541 68.3470506,20.3633459 67.4145494,21.735673 C66.5026349,23.0778113 65.8710553,24.8747925 65.7643095,26.4936604 C65.7518558,26.6823396 65.6916207,27.4911447 65.6801836,27.7258616 C65.601395,28.1824654 64.8000387,28.7724025 64.4853926,29.0800755 C63.7259722,29.8232201 62.7614473,30.3960503 61.8129342,30.8649811 C61.168901,31.1839748 60.3164591,31.6853585 59.5664425,31.5595723 C59.2131646,31.500956 58.8563285,31.2111447 58.7213713,30.8773082 C58.1754425,29.5246038 58.3541147,28.0657358 58.4674686,26.6511447 C58.5543903,25.5643522 58.7203546,24.4863648 58.9473166,23.4194465 C59.1892739,22.2825912 59.3488843,21.1303899 59.5544971,19.9872453 C59.7476563,18.9145409 60.1116088,17.8813333 60.3281504,16.8144151 C60.4559912,16.1847296 60.5518083,15.5490063 60.6669413,14.916805 C60.6765993,14.8654843 60.6854948,14.8176855 60.6931195,14.7799497 C60.7320055,14.5864906 60.8789081,14.4649811 60.9665922,14.3922767 C60.9798083,14.3814591 60.9927703,14.3711447 61.0044615,14.3608302 C61.4876135,14.1804528 62.7149366,13.9955472 63.2240126,13.908 C65.0135304,13.6000755 65.3845993,13.6981887 67.1680173,13.3942893 C67.8522074,13.2775597 69.0625019,13.1248553 69.595977,13.0194465 C69.8783451,12.9635975 70.3129532,13.0053585 70.5111955,12.7565535 C70.8576112,12.3205786 70.6225162,11.2735346 70.3797964,10.8340377 C70.0997157,10.3283774 69.607414,10.1246038 68.9671931,10.2576855 C67.8654235,10.4873711 66.7550126,10.6010818 65.6390102,10.7329057 C64.6267038,10.8524025 63.6204971,11.0830943 62.6015827,11.1341635 C62.3415803,11.1467421 62.0749698,11.1598239 61.8205589,11.2217107 C61.8424164,11.1384403 61.8602074,11.0559245 61.87749,10.9746667 C62.0762406,10.0375597 62.357338,9.12108176 62.593958,8.19353459 C62.7708511,7.50120755 63.021958,6.73290566 63.021958,6.01315723 C63.021958,5.56233962 62.9050458,5.12561006 62.5388059,4.83428931 C62.1250387,4.5052327 60.7060815,4.8325283 60.5169888,5.01768553 C60.3233214,5.20661635 60.2051385,5.43479245 60.1085589,5.68561006 C60.0793309,5.76057862 60.0495945,5.83730818 60.0157917,5.91227673 C59.9888511,5.9716478 59.8327988,6.44611321 59.8142454,6.51454088 C59.4561385,7.82724528 59.2507798,9.04032704 58.8649698,10.4446038 C58.7399247,10.900956 58.6108131,11.3711447 58.493901,11.8345409 C58.403167,11.8876226 58.1075827,11.9173082 57.9919413,11.9291321 C56.9277869,12.0342893 55.8565162,12.2576855 54.7961741,12.4093836 C54.6856159,12.4093836 54.508977,12.4466164 54.2721029,12.4981887 C54.1907727,12.5157987 54.0797062,12.5402013 54.0603903,12.5424654 C53.9760102,12.5424654 53.8677394,12.5658616 53.5599556,12.8471195 C53.3007157,13.0835975 52.82468,13.4682516 52.8173095,13.8461132 C52.7794401,15.7394465 56.3040862,15.0456101 57.3179176,14.8287547 C57.5118392,14.7869937 57.699661,14.7472453 57.8874829,14.7183145 C57.8651171,14.7917736 57.8414805,14.8712704 57.8175898,14.9500126 C57.5232762,15.9288805 57.3341836,16.9339119 57.0858724,17.9248553 C56.8383238,18.9145409 56.4776753,19.8486289 56.1020316,20.7963019 C55.6618321,21.9069937 55.2549271,23.0272453 54.7949033,24.1293836 C53.5711385,27.059195 52.8338297,30.3696352 50.5464188,32.7241006 C49.9107727,33.3786918 49.1043333,33.7029686 48.2058891,33.8290063 C47.6373404,33.9087547 47.0034734,34.0013333 46.4298416,34.0181887 C45.8147822,34.0360503 45.2345423,34.0307673 44.402433,33.9995723 C44.4336943,33.9318994 45.9044995,33.1706415 46.5749651,30.4805786 C46.8184473,29.5032201 47.0708249,28.5283774 47.2256064,27.5341635 C47.4024995,26.398566 47.5326278,24.8886289 46.9140102,23.8513962 C46.6125803,23.3472453 46.0318321,23.0624654 45.451338,23.0020881 C43.2706729,22.7744151 41.5533356,25.5822138 39.8809841,27.3739119 C39.4733166,27.8103899 37.4936895,29.8647296 36.94649,30.473283 C36.1105684,31.4023396 35.2027204,32.2939119 34.3129176,33.1731572 C33.6340648,33.8441006 32.687585,34.708 31.6892572,34.8239748 C31.1710316,34.8838491 30.5259817,34.6229686 30.1460173,34.2722767 C28.6470007,32.8878742 28.8681171,30.6466164 29.0396729,28.8164277 C29.085167,28.3296352 29.1339651,27.8433459 29.1756468,27.3563019 C29.2086872,26.9721509 29.3037418,26.5223396 29.1413356,26.1560503 C28.9324188,25.6808302 28.4612121,25.3736604 27.9379033,25.3726541 C27.2768416,25.3726541 27.0885114,25.7552956 26.7057513,26.2066164 C26.3204496,26.6607044 25.9298107,27.462717 25.7951076,28.0212075 C25.4059936,29.631522 24.9873974,31.4823396 24.6397109,32.3376855 C24.1690126,33.4951698 22.9015328,36.515044 22.7464971,36.8345409 C22.5602002,37.217434 22.2033641,38.0149182 22.000547,38.3900126 C21.5405233,39.2405786 21.206053,39.6866164 21.2177442,40.673283 C21.2200316,40.8926541 21.5130743,41.1975597 21.6886967,41.2986918 C21.9334496,41.4400755 22.2453,41.4614591 22.519281,41.4131572 C23.1330696,41.304478 23.4355162,40.7885031 23.6919603,40.2775597 C23.8297133,40.0038491 23.9428131,39.716805 24.0838701,39.4448553 C24.690034,38.276805 25.1106634,37.2478742 25.5287513,36.0020881 C25.7605423,35.3137862 26.092471,34.5520252 26.2754639,33.8491321 C26.3057086,33.7334088 26.4287204,33.3241006 26.5969722,33.3512704 C26.9235637,33.4035975 26.9741409,33.951522 27.0191266,34.1990692 C27.1357846,34.8451069 27.3924829,35.4058616 27.8019295,35.9223396 C28.6226017,36.9573082 29.8453499,37.5668679 31.1791646,37.5668679 C32.3198202,37.5668679 33.399224,37.142717 34.3472287,36.5371824 C35.7898226,35.6161761 36.8293238,34.2712704 38.0108986,33.0690063 C38.4993879,32.5721509 40.90549,30.1067421 41.5406278,29.3165535 C42.1211219,28.5945409 42.6520553,27.8347925 43.2678772,27.1412075 C43.5784568,26.7912704 43.9101314,26.4425912 44.3038202,26.182717 C44.6448986,27.3087547 44.4558059,28.5130314 44.0402596,29.5852327 C43.663091,30.5590692 43.2648273,31.6863648 42.5740292,32.4913962 C42.246167,32.873283 41.8463784,33.3819623 41.3764425,33.5814591 C41.3764425,33.5814591 41.3306943,33.6023396 41.330186,33.6025912 C40.4889271,33.988 38.6783143,34.5575597 38.4246658,35.0524025 C38.193129,35.5047296 38.0759627,36.2327799 38.2266777,36.702717 C38.3288487,37.0217107 38.6262121,37.1980629 38.8648653,37.3404528 C38.9164591,37.3711447 38.966528,37.4010818 39.0127846,37.4312704 C39.2171266,37.5651069 39.4791622,37.638566 39.7503475,37.638566 C40.2362952,37.638566 40.8117062,37.3618365 41.2432644,37.149761 C41.3195114,37.1122767 41.3990625,37.0702642 41.4801385,37.0282516 C41.7411575,36.8921509 42.1826278,36.6249811 42.4250933,36.5678742 C42.5844496,36.5308931 42.7394853,36.5140377 42.912566,36.5140377 C43.1082667,36.5140377 43.306509,36.5366792 43.5161884,36.5608302 C45.3972026,36.7764277 47.2733879,36.866239 49.1350862,36.4584403 C51.6763998,35.9012075 53.4791337,34.0755472 54.5051646,31.798566 C54.8193024,31.1022138 55.0546515,30.3137862 55.4450363,29.657434 C55.5502572,29.4800755 55.6595447,29.2971824 55.7286753,29.0886289 C55.7347751,29.069761 55.7408748,29.0518994 55.7467204,29.0342893 C55.7441789,29.4996981 55.7426539,29.9751698 55.7462121,30.4443522 C55.7523119,31.2903899 56.013585,32.2624654 56.4118487,32.9188176 C57.3995019,34.5469937 60.0414615,34.7354214 61.6667941,34.0770566 C62.2815993,33.8282516 62.9159746,33.4551698 63.4375043,33.0476226 C64.1277941,32.5085031 64.9347418,31.9605786 65.542939,31.3344151 C65.6336729,31.2408302 66.2195043,30.753283 66.2606777,30.7306415 C66.7796658,32.5542893 68.5897703,33.3286289 70.2196777,33.4083774 C70.8098297,33.4380629 71.4180268,33.3734088 71.9947086,33.2483774 C73.6574021,32.8883774 75.1932715,32.1233459 76.6170577,31.2058616 C76.6170577,31.2058616 76.6279865,31.1975597 76.648319,31.1817107 C77.0013428,30.9527799 77.3490292,30.716805 77.6878202,30.4722767 C78.1000625,30.1741635 78.5049342,29.8642264 78.885661,29.5271195 C79.0737371,29.360327 79.2562216,29.188 79.4320981,29.0086289 C79.563243,28.8747925 79.7073499,28.6659874 79.9142335,28.6659874 C79.9859057,28.6659874 80.0433451,28.6881258 80.080452,28.7291321 C80.2367584,28.8981887 80.2286254,29.3381887 80.0555447,30.073283 C79.884243,30.8013333 79.5884045,31.555044 80.6840743,31.7819623 C81.6925684,31.9910189 82.9511527,31.0873711 83.3750862,30.1741635 C83.7667418,29.3311447 83.8129983,28.4033459 84.0796088,27.5251069 C84.4717727,26.233283 85.5887917,25.0189434 86.7548629,24.3437233 C87.6027299,23.8531572 88.4915162,24.1190692 89.3800482,24.295673 C90.9504829,24.6078742 93.8290625,24.9854843 94.6123736,23.1351698 C94.872376,22.5225912 94.8665304,21.9090063 94.7905375,21.737434 C94.6230482,21.3618365 94.2502002,21.1495094 93.8092382,21.184478 C93.4801052,21.2106415 93.2493309,21.3625912 93.0048321,21.5238491 C92.8691124,21.6131572 92.729072,21.7057358 92.5679366,21.7786918 C92.2682857,21.9145409 91.9292406,21.9807044 91.5314853,21.9807044 C90.9260838,21.9807044 90.3033998,21.8254843 89.7544211,21.6891321 L89.7140102,21.6788176 C89.5615162,21.6408302 89.4128344,21.6008302 89.2669485,21.5613333 C88.7642264,21.4257358 88.2897157,21.2979371 87.7722525,21.297434 C87.3371361,21.2971824 86.8938867,21.4068679 86.5301884,21.6481258 C86.1898724,21.8737862 85.9504568,22.2488805 85.5565138,22.3957987 C85.7227323,22.3336604 85.8711599,20.3610818 85.8434568,20.1598239 C85.782205,19.713283 85.5359271,19.1963019 85.0222762,19.1583145 C84.9104473,19.1500126 84.7805732,19.1414591 84.6601029,19.1414591 C84.548528,19.1414591 84.4486444,19.149761 84.3546064,19.1656101" id="Fill-3"></path>
                <path d="M106.560055,58.4937358 C105.69338,58.0273208 104.754525,58.2904654 103.755181,58.8549937 C102.56166,59.5282013 101.486323,60.0607799 100.137767,60.408956 C98.9147648,60.7239245 95.3222589,62.0396478 93.9625202,62.2336101 C93.9340546,62.1581384 93.9210926,62.0328553 93.9094014,61.9216604 C93.6443159,59.4014088 91.8446318,57.3443019 89.2036888,57.2182642 C86.8410475,57.1058113 84.7757696,58.3558742 82.7097292,59.4917233 C81.8565249,59.9611572 81.0383943,60.5239245 80.2034893,61.0366289 C79.5053207,61.4655597 78.4360831,62.2660629 77.5793207,62.2660629 C77.5023112,62.2660629 77.4293682,62.2509686 77.3566793,62.2210314 C76.3761425,61.8114717 76.804905,60.2313459 77.2130808,59.0778868 C77.2900903,58.8602767 77.3536295,58.6371321 77.4156437,58.4207799 C77.4801995,58.1926038 77.5478052,57.9576352 77.6291354,57.7339874 C77.7747672,57.3372579 77.9229406,56.8099623 77.7785796,56.2502138 C77.6448931,55.7297107 77.3388884,55.4497107 76.787114,55.3420377 C76.6661354,55.3186415 76.5372779,55.3063145 76.4140119,55.3063145 C75.9811829,55.3063145 75.6340048,55.4522264 75.4365249,55.7168805 C75.3732399,55.8026667 75.2969929,55.8929811 75.2156627,55.988327 C75.0469026,56.188327 74.8725511,56.3948679 74.7642803,56.6132327 C74.1586247,57.8341132 73.2096033,58.9661887 72.1230831,59.7913459 C71.2754703,60.4346164 70.1688717,61.1893333 69.0820974,61.3027925 C67.5241164,61.4653082 66.9936912,59.9075723 66.8544133,58.6476981 C66.6368551,56.6839245 66.7733373,55.0404025 67.2206532,53.127195 C67.324095,52.6839245 67.427791,52.2414088 67.5330119,51.7983899 C67.5843515,51.5822893 67.5813017,51.3453082 67.674323,51.1400252 C67.8064846,50.8479497 68.0687743,50.8658113 68.3574964,50.8197736 C68.7003539,50.765434 69.0549026,50.7088302 69.4038599,50.6366289 C71.249038,50.2562516 73.0759169,49.8061887 74.8550143,49.1873208 C75.6998314,48.8932327 76.7273872,48.6439245 77.4507173,48.1040503 C77.5739834,48.0119748 77.7008076,47.9480755 77.8235653,47.8866918 C78.1351615,47.7299623 78.456924,47.5682013 78.5555368,47.0237987 C78.620601,46.6693333 78.7184513,46.132478 78.4546366,45.7855597 C78.3280665,45.6190189 78.1404988,45.5221635 77.8977791,45.4975094 C77.848981,45.492478 77.7966247,45.4904654 77.7424893,45.4904654 C77.284753,45.4904654 76.6923135,45.6698365 76.2904917,45.8378868 C75.1574608,46.3126038 73.9705487,46.6406541 72.7828741,46.9505912 C71.6887292,47.2366289 70.5948385,47.6014088 69.4676532,47.7239245 C69.3151591,47.7400252 69.1596152,47.7573836 69.0035629,47.7787673 C69.05719,47.6522264 69.1098005,47.5201509 69.1410618,47.3737358 C69.2625487,46.7958742 69.588886,46.1500881 69.8412637,45.6275723 C70.0969454,45.0990189 70.2804466,44.6965031 70.5516318,44.1747421 L70.5752684,44.1297107 C70.6441449,43.9991447 70.7295416,43.8358742 70.7465701,43.6572579 C70.7806271,43.3078239 70.7974014,42.9334843 70.7089549,42.5903396 C70.6131378,42.217761 70.3879549,42.106566 70.1879335,41.8157484 C70.080171,41.6585157 69.78662,41.2776352 69.3939477,41.137761 C69.3728527,41.1302138 69.3080428,41.1073208 69.1319121,41.1073208 C68.3557173,41.1078239 67.8878147,41.9070692 67.6125629,42.5163774 C67.1835463,43.4663145 66.7402969,44.4122264 66.396677,45.3968805 C66.0632233,46.3500881 65.899038,47.3518491 65.5144988,48.2882013 C65.3581924,48.6690818 64.9741615,48.7609057 64.6041093,48.8260629 C64.1301069,48.9088302 63.6657625,49.0202767 63.2024347,49.1493333 C62.6816675,49.294239 62.1662375,49.4575094 61.6459786,49.6039245 C61.3351449,49.6902138 61.0222779,49.7709686 60.7053444,49.8361258 C60.5370926,49.8705912 60.3708741,49.9126038 60.2056722,49.9571321 C59.7525107,50.0761258 59.3079905,50.2273208 58.8616912,50.3687044 C58.7679074,50.3981384 58.6695487,50.4225409 58.5719525,50.4479497 C58.2824679,50.5178868 57.9896793,50.5782642 57.7060404,50.666566 C57.4409549,50.7415346 56.9944014,50.8190189 56.9799145,51.1609057 C56.6978005,51.563673 56.5989335,51.9513459 56.6586603,52.4182642 C56.7816722,53.3815346 57.3964774,53.583044 57.8905582,53.583044 C58.8136556,53.583044 59.6940546,53.1822893 60.5518337,52.8326038 C60.6245226,52.807195 60.6972114,52.7835472 60.7696461,52.7543648 C61.0817506,52.6293333 61.3976675,52.5118491 61.7224798,52.4227925 C61.8259216,52.3958742 61.9306342,52.3712201 62.0363634,52.3510943 C62.170304,52.3264403 62.368038,52.2766289 62.5899169,52.2157484 C63.0606152,52.0892075 63.669829,51.9040503 64.0307316,51.8046792 C64.1207031,51.7805283 64.1911045,51.763673 64.2282114,51.7536101 C64.259981,51.7455597 64.2876841,51.7400252 64.3054751,51.7375094 C64.2660808,51.8157484 64.2238907,51.8949937 64.1796675,51.976 C62.6999667,54.7025409 61.3895344,57.483673 59.6884632,60.0897107 C59.2360641,60.7827925 58.8070475,61.6051824 58.2504442,62.2192704 C58.1157411,62.367195 58.0034038,62.5221635 57.8943705,62.6715975 C57.7939786,62.8102138 57.698924,62.9405283 57.5896366,63.0635472 C57.4300261,63.2431698 57.2714323,63.4273208 57.1125843,63.6117233 C56.6606936,64.1375094 56.192791,64.6806541 55.6804109,65.1372579 C54.6060903,66.0944906 53.6347031,67.2041761 52.3362162,67.8748679 C51.3284846,68.3956226 49.6477458,69.0753711 48.7421853,67.9863145 C48.0681615,67.1765031 47.5374822,66.1921006 47.4327696,65.1357484 C47.3674513,64.4746164 47.5003753,63.8122264 47.7197126,63.1893333 C47.9227838,62.6134843 48.2880071,62.0814088 48.4463468,61.494239 C48.6659382,60.6773836 48.5248812,59.8882013 48.0597743,59.3309686 C47.8150214,59.0388931 47.3222114,58.9148679 46.9905368,58.8315975 C46.9089525,58.810717 46.827114,58.8004025 46.7470546,58.8004025 C46.3274418,58.8004025 46.0272827,59.0743648 45.7883753,59.3422893 C45.3486841,59.8353711 45.1481544,60.4532327 44.9537245,61.0512201 C44.9061971,61.1991447 44.8584157,61.3470692 44.8083468,61.4912201 C44.071038,63.4861887 42.7006247,65.047195 41.1639929,66.4809057 C39.5447601,67.9915975 37.8134442,69.3669434 35.9733492,70.6064403 C34.7559382,71.4263145 33.4940499,72.2461887 32.1871758,72.9211572 C29.6458622,74.3178868 26.8356508,74.7646792 23.9786746,75.0044277 C19.0360879,75.4205283 13.422019,72.8851824 11.2827815,68.296 C10.6095202,66.8517233 10.0732494,65.0250566 9.97006176,63.4343648 C9.82392162,61.1790189 10.7127078,57.5045535 12.3985297,55.1732327 C12.8407625,54.5616604 13.3432304,53.9790189 13.8772138,53.4434214 C14.1440784,53.176 14.4211093,52.9186415 14.7070356,52.6710943 C17.8728124,49.9365031 22.140867,47.8303396 26.2787933,47.0985157 C27.6357363,46.8585157 29.0259739,46.7105912 30.404266,46.8240503 C31.112601,46.8821635 31.8176318,47.0087044 32.4903848,47.2393962 C33.1382304,47.461283 33.7258409,47.8529811 34.3924941,48.0180126 C34.8515012,48.1317233 35.3105083,48.0180126 35.540266,47.7900881 C36.7673349,46.4019119 33.9766936,45.179522 33.0213183,44.863044 C31.0114466,44.1981384 28.7817292,44.203673 26.7090808,44.4424151 C22.8588599,44.8869434 18.9326461,46.3128553 15.669019,48.374239 C14.770829,48.9417862 13.9453278,49.5951195 13.1414299,50.2856855 C12.8427957,50.5422893 12.5515321,50.807195 12.2686556,51.0796478 C10.288266,52.9890818 8.72952257,55.2844277 8.03059145,57.9244277 C7.12147268,61.3609057 6.98448219,64.9443019 8.32566746,68.2912201 C8.5770285,68.9669434 8.86702138,69.6285786 9.20733729,70.2597736 C11.4759406,74.4718491 16.3003444,77.1656855 20.9938575,77.7206541 C24.605171,78.1473208 28.1023682,77.4914717 31.453171,76.1455597 C32.3650855,75.779522 33.2587007,75.3692075 34.1340166,74.9241761 C35.130057,74.4175094 36.0925487,73.8383899 37.0049715,73.1958742 C38.4399406,72.1853082 39.8344988,71.1100881 41.2277862,70.0446792 C41.8893563,69.5387673 42.5402518,69.0190189 43.155057,68.4587673 C43.4620784,68.1785157 43.7589335,67.8879497 44.0433349,67.5853082 C44.2019287,67.416 44.836304,66.8781384 44.836304,66.6487044 C45.1649287,68.3835472 46.2600903,69.6781384 47.4004917,70.6044277 C50.1110736,72.8049308 54.2375629,70.4326038 56.3877292,68.6009057 C57.1359667,67.963673 57.8354062,67.2552453 58.4735938,66.5098365 C60.0808812,64.6338616 61.5308456,62.5709686 62.8158622,60.4658113 C63.0430784,60.0929811 63.2608907,59.7151195 63.4654869,59.3297107 C63.5674038,59.1385157 64.0990998,58.1910943 64.1552684,57.8575094 C64.0828337,59.6469434 64.1354442,60.4695849 64.5934347,61.496 C65.7282447,64.0398994 68.4454347,64.8182642 70.910247,63.7629182 C71.6750048,63.4356226 72.7195891,62.9666918 73.3188907,62.3845535 C73.3786176,62.3264403 73.4424109,62.2708428 73.5062043,62.2139874 C73.6271829,62.1070692 73.7532447,61.9953711 73.8660903,61.8632956 C73.8848979,61.8411572 73.9019264,61.8207799 73.9181924,61.8004025 C73.9415748,61.7729811 73.9603824,61.7493333 73.9769026,61.7312201 C74.0160428,61.9468176 74.0572162,62.2839245 74.0800903,62.4741132 C74.1174513,62.7780126 74.1306675,62.8809057 74.1497292,62.939522 C74.5180024,64.0715975 75.4815107,64.8796478 76.6432613,65.1226667 C78.0421401,65.4147421 79.4054371,64.7078239 80.592095,64.050717 C81.5014679,63.5470692 82.4227862,63.0235472 83.2861568,62.4461887 C84.6004014,61.5676981 85.9786936,60.7010314 87.5417577,60.2990189 C89.9638717,59.6766289 90.9329715,60.7988931 91.3543634,62.7392704 C91.3635131,62.7807799 91.3721544,62.8185157 91.3800333,62.8537358 C91.4400143,63.1146164 91.4517055,63.1317233 91.3027696,63.219522 C90.389076,63.7588931 89.3213634,64.1420377 88.3761544,64.6386415 C87.3389406,65.1832956 86.3558622,65.8245535 85.4076033,66.508327 C84.8865819,66.8839245 84.3752185,67.2731069 83.8694466,67.6693333 C83.1715321,68.216 82.5046247,68.8074465 81.9073563,69.4615346 C81.3431283,70.0798994 80.9710428,70.7825409 80.4825534,71.4479497 C79.22219,73.1651824 78.6719406,76.4710943 80.0436247,78.2861887 C81.7604537,80.5568805 85.2929786,80.2099623 87.4162043,78.7752453 C89.5445131,77.3365031 90.9932067,75.174239 92.0924347,72.8922264 C92.4070808,72.2383899 92.6736912,71.5624151 92.880829,70.8675723 C93.3766888,69.2031698 93.9475249,67.4321006 94.0161473,65.6884528 C94.0263135,65.4333585 94.0349549,65.1923522 94.13738,65.0014088 C94.1927862,64.9269434 94.5259857,64.8567547 94.6863587,64.8232956 C94.8167411,64.7958742 94.939753,64.7702138 95.0332827,64.736 C96.9554703,64.0381384 98.9966033,63.7626667 100.905067,63.019522 C102.325803,62.466566 103.875905,62.0180126 105.223698,61.3058113 C105.936608,60.928956 106.360796,60.5443019 106.679,59.7953711 C106.747114,59.5790189 106.856401,59.4245535 106.843185,59.1885786 C106.896304,59.0434214 106.674679,58.607195 106.560055,58.4937358 M91.6435938,66.5198994 C91.506095,67.4051824 91.2011069,68.6074465 90.9012019,69.4522264 C90.1013705,71.7032956 89.0082423,74.3956226 86.9587221,75.8129811 C86.8667173,75.8763774 86.7815748,75.9478239 86.699228,76.016 C85.7207245,76.8305912 82.5979002,77.7727296 81.9886865,76.0162516 C81.4249667,74.3910943 82.5287696,72.7299623 83.5758955,71.5387673 C84.4158836,70.5822893 85.2195273,69.8200252 86.2465748,69.0761258 C86.3342589,69.0127296 86.4237221,68.9508428 86.5129311,68.888956 C87.1630641,68.4388931 87.8274299,68.0051824 88.4666342,67.5392704 C89.0552613,67.1100881 90.9210261,66.125434 91.0867363,66.0356226 C91.280658,65.9302138 91.4796627,65.8217862 91.6636722,65.7639245 C91.6644347,65.8051824 91.6654513,65.845434 91.6662138,65.8859371 C91.6707886,66.1070692 91.6756176,66.3156226 91.6435938,66.5198994" id="Fill-5"></path>
                <path d="M46.7376762,49.0999245 C46.4492083,48.8606792 46.1226169,48.5894843 45.6592891,48.5869686 L45.647852,48.5869686 C45.3631964,48.5869686 45.1255599,48.6448302 44.9202012,48.7635723 C44.6007261,48.9487296 44.4078211,49.2594214 44.2619352,49.5391698 C44.0423437,49.9580377 43.9564387,50.5469686 44.2593936,50.917283 C44.4510278,51.152 44.7405124,51.2662138 45.1428425,51.2662138 C45.3149067,51.2662138 45.4851917,51.2465912 45.6359067,51.2289811 L45.6905504,51.2226918 C46.0707689,51.1799245 46.7724957,51.0257107 47.1999874,50.479044 C47.6747523,49.8730063 47.1189114,49.4138868 46.785966,49.1399245 L46.7376762,49.0999245 Z" id="Fill-7"></path>
            </g>
        </g>
    </g>
</svg>